<?xml version="1.0" standalone="no"?>
<!DOCTYPE svg PUBLIC "-//W3C//DTD SVG 20010904//EN"
 "http://www.w3.org/TR/2001/REC-SVG-20010904/DTD/svg10.dtd">
<svg version="1.0" xmlns="http://www.w3.org/2000/svg"
 width="579.000000pt" height="579.000000pt" viewBox="0 0 579.000000 579.000000"
 preserveAspectRatio="xMidYMid meet">
<metadata>
Created by potrace 1.14, written by Peter Selinger 2001-2017
</metadata>
<g transform="translate(0.000000,579.000000) scale(0.100000,-0.100000)"
fill="#000000" stroke="none">
<path d="M2314 5728 c-3 -5 -11 -7 -16 -6 -6 2 -21 -5 -33 -16 -33 -31 -79
-61 -87 -58 -5 1 -8 -2 -8 -8 0 -5 -6 -10 -14 -10 -8 0 -16 -7 -20 -15 -3 -8
-11 -15 -19 -15 -7 0 -22 -8 -33 -18 -10 -10 -37 -28 -59 -41 -22 -14 -50 -33
-62 -44 -13 -11 -23 -17 -23 -13 0 4 -10 -2 -22 -14 -12 -11 -26 -20 -31 -20
-4 0 -15 -6 -22 -12 -33 -30 -45 -38 -55 -38 -5 0 -10 -3 -10 -8 0 -4 -12 -13
-27 -19 -16 -7 -41 -24 -57 -38 -16 -13 -37 -27 -47 -30 -11 -4 -19 -11 -19
-16 0 -5 -5 -9 -12 -9 -6 0 -25 -11 -42 -24 -17 -13 -35 -23 -40 -24 -5 0 -12
-4 -15 -9 -3 -5 -28 -23 -56 -41 -27 -17 -55 -36 -62 -42 -7 -5 -17 -10 -23
-10 -5 0 -10 -4 -10 -8 0 -5 -12 -15 -27 -23 -38 -19 -87 -52 -91 -61 -2 -5
-10 -8 -18 -8 -8 0 -14 -5 -14 -11 0 -5 -4 -8 -8 -5 -5 3 -15 -3 -24 -12 -9
-9 -39 -30 -67 -47 -28 -16 -51 -33 -51 -37 0 -5 -5 -8 -11 -8 -5 0 -46 -25
-89 -55 -43 -30 -82 -55 -85 -55 -4 0 -12 -6 -20 -12 -7 -7 -36 -26 -64 -43
-28 -16 -51 -33 -51 -37 0 -5 -5 -8 -11 -8 -6 0 -29 -14 -50 -31 -21 -17 -39
-27 -39 -22 0 4 -4 3 -8 -3 -9 -13 -184 -129 -195 -129 -4 0 -12 -7 -17 -15
-5 -8 -10 -11 -10 -6 0 5 -10 -4 -22 -20 -13 -16 -22 -35 -20 -42 2 -9 -1 -11
-9 -6 -8 5 -10 3 -4 -7 12 -18 14 -49 4 -49 -4 0 -4 -13 1 -30 5 -19 5 -30 -1
-30 -6 0 -5 -8 1 -20 8 -15 8 -20 -2 -20 -8 0 -9 -3 -3 -8 12 -9 14 -282 1
-282 -5 0 -3 -7 4 -15 10 -12 10 -15 -1 -15 -9 0 -10 -3 -4 -8 12 -8 14 -262
2 -262 -5 0 -5 -5 -1 -12 11 -18 12 -128 1 -121 -6 4 -7 1 -2 -8 13 -19 12
-149 0 -149 -6 0 -6 -3 1 -8 6 -4 10 -20 9 -35 -1 -15 3 -31 9 -35 19 -11 46
-12 46 -1 0 5 4 8 9 4 10 -6 80 38 93 58 4 7 8 8 8 4 0 -4 6 -3 13 3 17 15
358 240 363 240 5 0 66 42 74 51 3 3 23 16 45 29 22 13 42 27 45 30 3 3 30 21
60 40 30 19 57 38 58 42 2 5 8 8 12 8 8 0 167 101 227 145 13 8 26 15 29 14 4
0 10 3 13 9 3 5 40 31 81 58 41 26 77 52 78 56 2 5 7 6 11 4 4 -3 20 6 35 19
16 14 37 27 47 30 11 4 19 11 19 16 0 5 8 13 18 17 24 10 255 165 264 177 4 5
8 6 8 2 0 -4 10 1 22 13 12 11 25 20 29 20 4 0 14 6 21 13 18 15 44 32 86 53
19 10 36 23 39 31 3 7 11 13 19 13 8 0 14 5 14 10 0 6 6 10 13 10 13 0 71 49
75 63 1 4 2 8 3 10 7 18 3 85 -5 96 -7 9 -7 12 -1 9 13 -8 13 171 0 191 -5 10
-4 12 3 7 7 -4 12 -3 12 3 0 5 -5 13 -10 16 -6 4 -7 12 -3 18 11 18 10 111 -2
119 -6 5 -5 8 3 8 6 0 12 7 12 16 0 9 -5 12 -12 8 -7 -5 -8 -3 -3 6 12 19 14
171 2 194 -5 11 -5 16 0 13 11 -7 10 83 0 100 -4 7 -4 14 0 16 6 4 7 199 2
252 -1 6 2 19 7 29 5 14 4 17 -4 12 -7 -4 -12 -2 -12 6 0 15 -47 21 -56 6z"/>
<path d="M3470 5151 c-5 -9 -10 -14 -12 -12 -3 4 -175 -106 -188 -119 -3 -3
-30 -21 -60 -40 -30 -19 -59 -38 -65 -43 -5 -4 -91 -61 -190 -127 -99 -65
-185 -123 -191 -129 -7 -5 -14 -7 -18 -4 -3 3 -8 -2 -12 -11 -3 -9 -10 -16
-15 -16 -8 0 -74 -39 -104 -63 -42 -31 -389 -257 -396 -257 -5 0 -9 -3 -9 -7
0 -5 -30 -26 -66 -48 -36 -22 -75 -48 -86 -57 -11 -10 -29 -20 -39 -23 -11 -4
-19 -10 -19 -15 0 -5 -9 -12 -20 -15 -11 -3 -26 -12 -32 -18 -7 -7 -44 -32
-83 -56 -38 -24 -71 -48 -73 -53 -2 -4 -8 -8 -13 -8 -10 0 -186 -116 -207
-137 -7 -7 -10 -13 -6 -13 3 0 1 -7 -6 -15 -7 -8 -8 -15 -3 -15 10 0 10 -46 0
-57 -4 -3 -2 -12 4 -20 9 -10 8 -13 -2 -13 -10 0 -10 -3 -1 -12 7 -7 8 -17 1
-30 -7 -13 -6 -18 2 -18 8 0 8 -4 -1 -15 -10 -12 -10 -15 1 -15 11 0 11 -2 -1
-10 -8 -5 -10 -10 -5 -10 6 0 10 -13 10 -29 0 -16 -3 -27 -7 -24 -10 5 -10
-11 -1 -21 11 -11 12 -36 1 -36 -6 0 -5 -6 2 -15 10 -12 10 -15 -1 -15 -12 0
-12 -2 0 -9 9 -6 10 -10 2 -16 -7 -4 -8 -12 -4 -18 10 -15 10 -38 0 -54 -5 -8
-3 -13 4 -13 8 0 8 -4 -1 -15 -10 -12 -10 -15 0 -15 10 0 10 -3 0 -15 -10 -12
-10 -15 1 -15 11 0 11 -2 -1 -10 -10 -6 -11 -10 -2 -10 6 0 12 -5 12 -11 0 -5
-4 -8 -8 -5 -7 4 -7 -41 1 -99 2 -11 -1 -26 -6 -32 -6 -9 -5 -13 3 -13 9 0 9
-4 -1 -17 -12 -15 -12 -16 1 -8 13 8 13 7 1 -8 -7 -9 -9 -17 -3 -17 12 0 10
-33 -3 -42 -6 -5 -5 -8 3 -8 8 0 10 -5 6 -12 -12 -19 -12 -48 0 -48 6 0 4 -5
-4 -10 -11 -7 -11 -10 -2 -10 7 0 10 -4 7 -10 -8 -13 -12 -90 -5 -90 3 0 5
-18 5 -40 0 -22 -4 -40 -9 -40 -5 0 -3 -7 4 -15 6 -8 9 -19 6 -24 -6 -10 23
-31 42 -31 4 0 51 28 103 62 52 35 99 65 104 68 6 3 50 32 98 65 110 75 136
92 165 106 12 7 22 16 22 21 0 4 5 8 11 8 5 0 46 25 89 55 43 30 83 55 89 55
5 0 11 4 13 8 2 5 35 29 73 53 39 23 72 46 75 49 3 3 50 34 105 70 55 36 105
69 112 75 6 5 34 24 62 40 28 17 51 33 51 38 0 4 7 7 15 7 8 0 15 5 15 10 0 6
4 10 9 10 5 0 91 55 192 122 101 66 222 146 269 177 47 30 87 59 88 63 2 5 8
6 13 2 5 -3 9 -1 9 5 0 5 9 13 20 16 11 3 26 12 33 18 25 24 76 57 87 57 6 0
9 4 6 9 -3 5 1 14 9 21 12 10 13 16 4 26 -6 8 -8 14 -3 14 7 0 9 1017 2 1083
-2 19 -2 19 -41 22 -17 1 -31 -4 -37 -14z"/>
<path d="M1410 3784 c0 -8 -4 -13 -9 -9 -5 3 -21 -6 -35 -20 -14 -14 -28 -25
-31 -25 -3 0 -23 -12 -44 -27 -21 -16 -47 -34 -57 -40 -186 -125 -246 -163
-254 -163 -4 0 -10 -4 -12 -8 -4 -12 -211 -147 -220 -144 -5 1 -8 -3 -8 -8 0
-6 -10 -15 -22 -20 -13 -5 -50 -30 -83 -54 -33 -25 -66 -45 -72 -45 -7 -1 -13
-5 -13 -10 0 -5 -14 -14 -30 -21 -17 -7 -30 -16 -30 -21 0 -5 -7 -9 -15 -9 -8
0 -24 -9 -35 -20 -11 -11 -20 -18 -20 -15 0 3 -6 0 -14 -7 -7 -7 -13 -28 -12
-45 1 -18 -1 -33 -5 -33 -3 0 -3 -20 1 -45 4 -25 3 -45 -2 -45 -5 0 -6 -5 -2
-11 10 -16 11 -129 1 -129 -4 0 -3 -9 3 -20 8 -15 8 -20 -2 -20 -8 0 -9 -3 -3
-8 14 -10 17 -32 5 -32 -5 0 -7 -6 -4 -14 7 -19 11 -216 4 -216 -7 0 -3 -78 4
-97 3 -7 1 -13 -5 -13 -6 0 -6 -7 1 -20 8 -15 8 -20 -2 -20 -9 0 -9 -3 2 -10
13 -9 13 -10 0 -10 -12 0 -13 -2 -1 -9 11 -7 11 -9 0 -14 -11 -4 -11 -6 -1 -6
10 -1 10 -6 2 -21 -8 -14 -8 -20 0 -20 8 0 8 -6 0 -20 -6 -11 -7 -20 -3 -20 4
0 8 -13 8 -30 0 -16 -4 -30 -8 -30 -4 0 -3 -10 4 -21 9 -17 8 -20 -2 -14 -8 6
-10 4 -4 -4 11 -19 11 -91 0 -91 -7 0 -7 -3 0 -8 6 -4 10 -27 10 -51 0 -51 12
-60 43 -31 12 11 24 20 28 19 7 -2 39 19 59 38 7 7 15 9 19 6 3 -3 8 2 12 11
3 9 12 16 19 16 8 0 20 6 27 13 7 8 24 20 38 27 13 7 29 17 34 21 29 24 269
179 277 179 5 0 9 5 9 10 0 6 7 10 15 10 8 0 15 5 15 10 0 6 7 10 15 10 9 0
18 7 21 15 4 8 12 15 19 15 8 0 20 6 27 13 13 12 61 44 123 82 16 10 34 22 40
27 19 16 176 118 182 118 15 0 31 36 22 52 -5 9 -5 19 0 22 10 7 8 132 -2 142
-4 4 -1 14 6 22 14 18 13 22 -5 33 -8 6 -9 9 -1 9 12 0 12 17 0 38 -5 7 -3 12
4 12 8 0 8 4 -1 15 -10 12 -10 15 0 15 10 0 10 3 0 15 -10 12 -10 15 0 15 10
0 10 3 0 15 -10 12 -10 15 0 15 10 0 10 3 1 14 -9 11 -9 15 1 19 9 4 9 6 1 6
-8 1 -9 10 -3 30 6 21 5 31 -3 35 -8 3 -7 5 2 5 11 1 11 4 1 16 -10 12 -10 15
1 15 10 0 10 3 1 12 -6 6 -8 18 -4 27 9 20 9 42 -1 59 -5 6 -4 12 1 12 10 0 9
30 -2 48 -4 7 -2 12 4 12 7 0 8 6 1 18 -7 13 -6 23 1 30 9 9 9 12 -1 12 -10 0
-11 3 -2 14 9 11 9 15 -1 19 -11 4 -11 6 0 6 9 1 10 6 2 20 -7 14 -7 22 0 26
8 5 8 11 0 20 -8 10 -8 15 1 20 8 6 7 10 -2 16 -8 5 -9 9 -3 9 13 0 15 31 2
47 -5 7 -5 14 2 18 7 4 7 12 0 25 -7 13 -7 21 0 25 8 5 7 11 -1 21 -9 11 -9
14 0 14 8 0 9 5 2 19 -6 10 -8 21 -5 24 11 10 11 57 1 50 -6 -4 -8 0 -4 10 3
9 0 18 -9 21 -8 3 -14 -1 -14 -10z"/>
<path d="M5478 2494 c-16 -8 -28 -12 -28 -10 0 3 -12 -6 -26 -19 -15 -14 -30
-22 -35 -19 -5 3 -9 1 -9 -4 0 -10 -101 -77 -112 -74 -5 1 -8 -2 -8 -6 0 -8
-123 -92 -135 -92 -3 0 -16 -9 -28 -21 -12 -11 -39 -29 -59 -40 -21 -11 -38
-24 -38 -30 0 -6 -4 -8 -9 -5 -4 3 -16 -3 -26 -14 -10 -11 -24 -20 -32 -20 -7
0 -13 -5 -13 -11 0 -5 -4 -8 -9 -5 -5 4 -11 2 -13 -2 -4 -10 -158 -112 -169
-112 -4 0 -12 -6 -16 -12 -4 -7 -24 -22 -43 -32 -19 -11 -37 -22 -40 -25 -3
-4 -36 -26 -74 -51 -38 -24 -75 -50 -82 -58 -8 -7 -14 -11 -14 -8 0 4 -19 -7
-42 -24 -22 -16 -47 -30 -55 -30 -8 0 -11 -4 -8 -10 3 -5 2 -10 -3 -10 -11 0
-106 -62 -110 -72 -2 -5 -8 -6 -13 -2 -5 3 -9 0 -9 -5 0 -6 -6 -11 -14 -11 -8
0 -16 -3 -18 -7 -4 -11 -65 -53 -76 -53 -5 0 -17 -9 -27 -20 -10 -11 -21 -17
-25 -15 -4 3 -11 -2 -14 -11 -4 -9 -9 -14 -12 -11 -3 2 -17 -6 -31 -19 -14
-13 -29 -21 -34 -18 -5 3 -9 1 -9 -4 0 -5 -13 -15 -30 -22 -16 -7 -28 -16 -25
-20 3 -5 -8 -12 -23 -18 -16 -5 -36 -17 -45 -27 -9 -9 -17 -14 -17 -10 0 3
-10 -3 -22 -15 -12 -11 -27 -20 -34 -20 -6 0 -15 -7 -18 -16 -3 -8 -10 -12
-16 -9 -5 3 -10 1 -10 -4 0 -6 -7 -11 -15 -11 -8 0 -15 -4 -15 -10 0 -5 -7
-10 -15 -10 -8 0 -15 -4 -15 -9 0 -10 -32 -30 -83 -53 -18 -8 -25 -18 -22 -27
5 -13 -18 2 -45 29 -3 3 -17 11 -32 19 -16 8 -28 18 -28 23 0 4 -4 8 -9 8 -9
0 -105 59 -127 79 -7 5 -15 7 -18 4 -3 -4 -6 -1 -6 6 0 6 -11 16 -25 21 -14 5
-25 14 -25 20 0 5 -5 10 -11 10 -6 0 -30 14 -54 30 -24 17 -48 30 -53 30 -6 0
-12 4 -14 8 -1 5 -32 28 -68 52 -36 24 -67 47 -68 52 -2 4 -7 6 -12 3 -4 -2
-15 4 -25 15 -10 11 -23 20 -30 20 -7 0 -21 8 -33 18 -23 20 -33 27 -126 87
-38 25 -72 45 -76 45 -3 0 -15 8 -26 19 -11 10 -31 24 -44 31 -13 7 -29 17
-34 22 -24 20 -238 158 -246 158 -4 0 -10 4 -12 8 -4 10 -140 100 -151 100 -5
1 -17 10 -26 21 -10 12 -22 21 -26 21 -5 0 -23 11 -42 26 -18 14 -33 21 -33
17 0 -4 -4 -3 -8 3 -14 22 -402 274 -421 274 -24 0 -50 -49 -41 -76 4 -10 4
-26 -1 -35 -5 -9 -5 -20 -1 -24 11 -10 8 -79 -3 -87 -7 -5 -6 -11 1 -15 12 -9
13 -52 1 -70 -5 -7 -4 -13 2 -13 10 0 9 -25 -2 -36 -4 -4 -2 -13 3 -20 12 -14
10 -36 -5 -46 -6 -5 -5 -11 3 -17 15 -9 15 -20 1 -38 -7 -7 -6 -13 0 -17 12
-8 10 -46 -1 -46 -5 0 -4 -9 2 -19 7 -14 7 -22 0 -26 -6 -4 -8 -11 -5 -16 12
-19 13 -49 2 -49 -8 0 -8 -3 2 -9 9 -6 10 -11 2 -15 -8 -5 -8 -13 -1 -27 8
-14 7 -19 -1 -19 -9 0 -9 -3 0 -14 9 -10 9 -16 1 -21 -8 -5 -8 -10 0 -20 6 -7
7 -16 2 -19 -10 -6 -9 -42 1 -52 3 -4 2 -16 -4 -27 -8 -15 -8 -18 1 -12 9 6 9
2 1 -14 -7 -11 -8 -21 -3 -21 10 0 9 -30 -2 -48 -4 -7 -2 -12 6 -12 9 0 9 -3
-2 -10 -12 -8 -12 -10 -1 -10 11 0 11 -3 1 -15 -10 -12 -10 -15 0 -15 10 0 10
-3 0 -15 -10 -12 -10 -15 1 -15 10 0 11 -2 2 -8 -8 -5 -9 -13 -3 -22 5 -9 5
-19 -2 -27 -7 -9 -7 -13 1 -13 7 0 10 -3 7 -8 -2 -4 1 -14 7 -23 14 -18 164
-119 178 -119 5 0 9 -4 9 -10 0 -5 5 -10 10 -10 11 0 24 -10 61 -43 10 -9 21
-16 24 -15 2 2 14 -5 25 -15 11 -9 22 -17 25 -17 2 0 114 -73 247 -161 134
-89 275 -182 313 -208 39 -25 72 -49 73 -53 2 -5 7 -8 12 -8 12 0 224 -141
228 -151 2 -5 8 -9 13 -9 11 0 333 -212 337 -223 2 -4 8 -5 13 -1 5 3 9 1 9
-4 0 -4 19 -19 43 -32 23 -13 44 -27 47 -30 3 -4 46 -33 95 -65 50 -31 92 -61
93 -66 2 -5 8 -7 13 -3 5 3 9 0 9 -5 0 -6 6 -11 13 -11 7 0 22 -8 33 -18 24
-22 64 -34 64 -19 0 6 3 8 6 4 4 -3 21 5 39 18 17 14 36 25 41 25 5 0 16 9 24
19 7 11 17 18 21 16 3 -3 19 7 35 20 16 14 44 32 62 40 17 9 32 20 32 25 0 6
6 10 13 10 7 0 23 9 35 20 12 11 24 20 27 20 10 0 97 58 134 90 10 8 24 16 32
18 8 2 19 8 24 14 7 8 6 8 -4 3 -10 -5 -12 -4 -7 4 4 6 11 9 16 6 5 -3 18 2
30 12 11 10 23 17 26 15 3 -2 15 7 28 20 12 13 29 24 36 26 8 2 17 7 20 10 7
9 93 66 101 67 3 0 13 8 22 17 10 9 26 20 37 23 11 3 20 11 20 17 0 6 3 9 6 5
4 -3 12 -1 20 6 33 29 44 37 54 37 5 0 10 5 10 11 0 5 4 8 8 5 5 -3 24 8 43
25 19 16 40 29 47 29 6 0 12 4 12 9 0 5 13 14 30 21 16 7 27 17 23 23 -3 5 -1
7 5 3 6 -3 17 1 25 9 9 8 20 15 26 15 6 0 11 4 11 9 0 5 9 13 20 16 11 4 17
11 14 17 -4 7 -2 8 4 4 7 -4 20 -2 29 3 10 6 14 11 8 11 -5 0 9 10 32 23 23
12 50 29 60 37 10 8 31 21 46 29 15 8 27 18 27 23 0 4 5 8 11 8 12 0 103 60
107 72 2 4 8 6 13 2 5 -3 9 -1 9 3 0 5 16 17 35 27 19 11 35 22 35 26 0 5 11
11 25 14 14 4 25 11 25 16 0 6 6 10 13 10 7 0 22 8 33 18 11 10 41 31 67 46
26 15 47 31 47 34 0 4 18 16 40 26 22 11 40 23 40 28 0 4 6 8 13 8 15 0 48 36
40 44 -4 3 -2 6 3 6 6 0 10 22 9 50 0 27 -4 50 -8 50 -5 0 -5 5 -1 12 10 16
11 188 0 188 -5 0 -3 7 4 15 10 12 10 15 -1 15 -9 0 -10 3 -4 8 12 8 14 342 2
342 -5 0 -5 5 -2 10 4 6 12 7 18 3 9 -5 9 -3 1 8 -8 9 -11 73 -10 197 0 100
-3 182 -8 182 -5 0 -4 6 2 13 7 8 7 18 2 27 -6 8 -10 11 -11 5 0 -5 -3 -3 -7
7 -6 15 -10 15 -34 2z"/>
</g>
</svg>
