<svg width="42" height="42" viewBox="0 0 42 42" fill="none" xmlns="http://www.w3.org/2000/svg">
<path d="M35.3903 0C37.8512 0 39.8331 1.98975 39.9499 4.33388V42L35.2669 38.0218L32.697 35.6842L29.887 33.2364L31.0564 37.0926H6.49427C4.03989 37.0926 2.05145 35.2327 2.05145 32.7587V4.34175C2.05145 1.99763 4.0412 0.007875 6.50214 0.007875H35.3771L35.3903 0ZM24.6842 9.94613H24.6291L24.2734 10.2952C27.9038 11.3479 29.6599 12.9885 29.6599 12.9885C27.3223 11.8191 25.2092 11.2311 23.104 10.9922C21.5867 10.7599 20.0616 10.8833 18.7766 10.9922H18.421C17.6006 10.9922 15.8511 11.3479 13.5056 12.2837C12.6919 12.6394 12.2207 12.8717 12.2207 12.8717C12.2207 12.8717 13.9703 11.1143 17.8395 10.1784L17.6006 9.94613C17.6006 9.94613 14.6751 9.82931 11.5172 12.1682C11.5172 12.1682 8.35933 17.6715 8.35933 24.4519C8.35933 24.4519 10.1089 27.4942 14.9087 27.6097C14.9087 27.6097 15.6122 26.6805 16.317 25.8602C13.6238 25.0399 12.5711 23.3992 12.5711 23.3992C12.5711 23.3992 12.81 23.5161 13.1591 23.7484H13.2615C13.3166 23.7484 13.3442 23.7759 13.3705 23.8035V23.8166C13.398 23.8442 13.4256 23.8639 13.4728 23.8639C14.0543 24.1027 14.6278 24.3351 15.1003 24.5674C15.9206 24.9165 16.9667 25.2709 18.2516 25.5045C19.8791 25.7434 21.7442 25.8536 23.8705 25.5045C24.9165 25.2656 25.9691 25.0399 27.0218 24.5674C27.699 24.2183 28.539 23.8704 29.4617 23.2759C29.4617 23.2759 28.4156 24.9165 25.6056 25.7368C26.1805 26.5506 26.9929 27.4864 26.9929 27.4864C31.798 27.3774 33.6643 24.3351 33.7667 24.465C33.7667 17.6912 30.5878 12.1813 30.5878 12.1813C27.7305 10.0551 25.0504 9.97369 24.5792 9.97369L24.675 9.93956L24.6842 9.94613ZM24.9782 17.6715C26.2093 17.6715 27.2003 18.7176 27.2003 20.0025C27.2003 21.3019 26.2028 22.3466 24.9782 22.3466C23.7471 22.3466 22.7561 21.3006 22.7561 20.0156C22.7561 18.7162 23.7536 17.6715 24.9782 17.6715ZM17.0284 17.6715C18.2516 17.6715 19.2439 18.7176 19.2439 20.0025C19.2439 21.3019 18.2464 22.3466 17.0218 22.3466C15.7907 22.3466 14.7932 21.3006 14.7932 20.0156C14.7932 18.7162 15.7907 17.6715 17.0218 17.6715H17.0284Z" fill="white"/>
</svg>
