<svg width="24" height="24" viewBox="0 0 24 24" fill="none" xmlns="http://www.w3.org/2000/svg">
<path d="M15.8 2.2095C15.39 1.7995 14.68 2.0795 14.68 2.6495V6.1395C14.68 7.5995 15.92 8.8095 17.43 8.8095C18.38 8.81951 19.7 8.8195 20.83 8.8195C21.4 8.8195 21.7 8.1495 21.3 7.7495C19.86 6.2995 17.28 3.6895 15.8 2.2095Z" fill="white"/>
<path d="M20.5 10.1895H17.61C15.24 10.1895 13.31 8.25951 13.31 5.88951V2.99951C13.31 2.44951 12.86 1.99951 12.31 1.99951H8.07C4.99 1.99951 2.5 3.99951 2.5 7.56951V16.4295C2.5 19.9995 4.99 21.9995 8.07 21.9995H15.93C19.01 21.9995 21.5 19.9995 21.5 16.4295V11.1895C21.5 10.6395 21.05 10.1895 20.5 10.1895ZM11.5 17.7495H7.5C7.09 17.7495 6.75 17.4095 6.75 16.9995C6.75 16.5895 7.09 16.2495 7.5 16.2495H11.5C11.91 16.2495 12.25 16.5895 12.25 16.9995C12.25 17.4095 11.91 17.7495 11.5 17.7495ZM13.5 13.7495H7.5C7.09 13.7495 6.75 13.4095 6.75 12.9995C6.75 12.5895 7.09 12.2495 7.5 12.2495H13.5C13.91 12.2495 14.25 12.5895 14.25 12.9995C14.25 13.4095 13.91 13.7495 13.5 13.7495Z" fill="white"/>
</svg>
