<svg width="24" height="24" viewBox="0 0 24 24" fill="none" xmlns="http://www.w3.org/2000/svg">
<path d="M12 1.99951C9.38 1.99951 7.25 4.12951 7.25 6.74951C7.25 9.31951 9.26 11.3995 11.88 11.4895C11.96 11.4795 12.04 11.4795 12.1 11.4895C12.12 11.4895 12.13 11.4895 12.15 11.4895C12.16 11.4895 12.16 11.4895 12.17 11.4895C14.73 11.3995 16.74 9.31951 16.75 6.74951C16.75 4.12951 14.62 1.99951 12 1.99951Z" fill="white"/>
<path d="M17.08 14.1494C14.29 12.2894 9.73996 12.2894 6.92996 14.1494C5.65996 14.9994 4.95996 16.1494 4.95996 17.3794C4.95996 18.6094 5.65996 19.7494 6.91996 20.5894C8.31996 21.5294 10.16 21.9994 12 21.9994C13.84 21.9994 15.68 21.5294 17.08 20.5894C18.34 19.7394 19.04 18.5994 19.04 17.3594C19.03 16.1294 18.34 14.9894 17.08 14.1494Z" fill="white"/>
</svg>
