<svg width="183" height="61" viewBox="0 0 183 61" fill="none" xmlns="http://www.w3.org/2000/svg">
<path d="M61.2761 48.4854C61.2761 47.8129 61.4153 47.2244 61.6937 46.72C61.9722 46.2075 62.3529 45.8152 62.8361 45.543C63.3274 45.2627 63.8801 45.1226 64.4943 45.1226C65.0838 45.1226 65.6161 45.2627 66.091 45.543C66.566 45.8232 66.914 46.1875 67.1351 46.6359V42.8888H67.9949V51.7762H67.1351V50.311C66.9304 50.7674 66.5946 51.1437 66.1279 51.4399C65.6611 51.7282 65.1125 51.8723 64.482 51.8723C63.8678 51.8723 63.3151 51.7322 62.8238 51.4519C62.3406 51.1717 61.9599 50.7754 61.6815 50.2629C61.4112 49.7505 61.2761 49.158 61.2761 48.4854ZM67.1351 48.4975C67.1351 47.969 67.0245 47.5046 66.8034 47.1043C66.5824 46.704 66.2794 46.3957 65.8945 46.1795C65.5178 45.9633 65.1002 45.8552 64.6416 45.8552C64.1667 45.8552 63.7409 45.9593 63.3642 46.1675C62.9875 46.3757 62.6887 46.6799 62.4676 47.0803C62.2547 47.4726 62.1482 47.941 62.1482 48.4854C62.1482 49.0219 62.2547 49.4943 62.4676 49.9026C62.6887 50.303 62.9875 50.6112 63.3642 50.8274C63.7409 51.0356 64.1667 51.1397 64.6416 51.1397C65.1002 51.1397 65.5178 51.0316 65.8945 50.8154C66.2794 50.5992 66.5824 50.291 66.8034 49.8906C67.0245 49.4903 67.1351 49.0259 67.1351 48.4975Z" fill="white"/>
<path d="M70.8176 46.5158C71.0059 46.0674 71.2925 45.7191 71.6774 45.4709C72.0704 45.2227 72.5495 45.0986 73.1145 45.0986V45.9753H72.8811C72.2588 45.9753 71.7593 46.1395 71.3826 46.4678C71.0059 46.796 70.8176 47.3445 70.8176 48.1131V51.7762H69.9578V45.2187H70.8176V46.5158Z" fill="white"/>
<path d="M80.4757 48.1492C80.4757 48.4294 80.4675 48.6456 80.4511 48.7977H74.887C74.9033 49.2941 75.0221 49.7225 75.2432 50.0828C75.4724 50.4351 75.7672 50.7033 76.1275 50.8875C76.4878 51.0716 76.8809 51.1637 77.3067 51.1637C77.8635 51.1637 78.3303 51.0316 78.707 50.7674C79.0918 50.5031 79.3457 50.1468 79.4685 49.6985H80.3774C80.2137 50.339 79.8615 50.8634 79.3211 51.2718C78.7888 51.6721 78.1174 51.8723 77.3067 51.8723C76.6762 51.8723 76.1112 51.7362 75.6117 51.4639C75.1121 51.1837 74.7191 50.7914 74.4325 50.287C74.1541 49.7745 74.0149 49.178 74.0149 48.4975C74.0149 47.8169 74.1541 47.2204 74.4325 46.708C74.7109 46.1955 75.0999 45.8032 75.5994 45.531C76.0989 45.2587 76.668 45.1226 77.3067 45.1226C77.9454 45.1226 78.5022 45.2587 78.9772 45.531C79.4603 45.7952 79.8288 46.1595 80.0826 46.6239C80.3447 47.0883 80.4757 47.5967 80.4757 48.1492ZM79.6036 48.1732C79.6118 47.6768 79.5094 47.2524 79.2965 46.9001C79.0918 46.5478 78.8093 46.2836 78.449 46.1075C78.0887 45.9313 77.6957 45.8432 77.2698 45.8432C76.8522 45.8432 76.4674 45.9313 76.1153 46.1075C75.7631 46.2836 75.4765 46.5478 75.2554 46.9001C75.0344 47.2524 74.9115 47.6768 74.887 48.1732H79.6036Z" fill="white"/>
<path d="M81.6557 48.4854C81.6557 47.8129 81.7908 47.2244 82.0611 46.72C82.3395 46.2075 82.7202 45.8152 83.2034 45.543C83.6947 45.2627 84.2474 45.1226 84.8616 45.1226C85.5003 45.1226 86.0489 45.2667 86.5075 45.555C86.9742 45.8432 87.31 46.2115 87.5147 46.6599V45.2187H88.3745V51.7762H87.5147V50.323C87.3018 50.7714 86.9619 51.1437 86.4952 51.4399C86.0366 51.7282 85.488 51.8723 84.8493 51.8723C84.2433 51.8723 83.6947 51.7322 83.2034 51.4519C82.7202 51.1717 82.3395 50.7754 82.0611 50.2629C81.7908 49.7505 81.6557 49.158 81.6557 48.4854ZM87.5147 48.4975C87.5147 47.969 87.4041 47.5046 87.183 47.1043C86.9619 46.704 86.659 46.3957 86.2741 46.1795C85.8974 45.9633 85.4798 45.8552 85.0212 45.8552C84.5463 45.8552 84.1205 45.9593 83.7438 46.1675C83.3671 46.3757 83.0683 46.6799 82.8472 47.0803C82.6343 47.4726 82.5278 47.941 82.5278 48.4854C82.5278 49.0219 82.6343 49.4943 82.8472 49.9026C83.0683 50.303 83.3671 50.6112 83.7438 50.8274C84.1205 51.0356 84.5463 51.1397 85.0212 51.1397C85.4798 51.1397 85.8974 51.0316 86.2741 50.8154C86.659 50.5992 86.9619 50.291 87.183 49.8906C87.4041 49.4903 87.5147 49.0259 87.5147 48.4975Z" fill="white"/>
<path d="M98.3213 45.0986C99.1074 45.0986 99.7461 45.3428 100.237 45.8312C100.737 46.3116 100.987 47.0122 100.987 47.933V51.7762H100.139V48.0291C100.139 47.3165 99.9631 46.772 99.611 46.3957C99.2589 46.0194 98.7798 45.8312 98.1739 45.8312C97.5433 45.8312 97.0397 46.0354 96.6631 46.4437C96.2864 46.8521 96.0981 47.4446 96.0981 48.2212V51.7762H95.2505V48.0291C95.2505 47.3165 95.0745 46.772 94.7224 46.3957C94.3703 46.0194 93.8871 45.8312 93.273 45.8312C92.6425 45.8312 92.1389 46.0354 91.7622 46.4437C91.3855 46.8521 91.1972 47.4446 91.1972 48.2212V51.7762H90.3374V45.2187H91.1972V46.3477C91.4101 45.9393 91.713 45.6311 92.1061 45.4229C92.4992 45.2067 92.9372 45.0986 93.4204 45.0986C94.0018 45.0986 94.5095 45.2347 94.9435 45.5069C95.3856 45.7792 95.705 46.1795 95.9015 46.708C96.0817 46.1875 96.3887 45.7912 96.8227 45.519C97.2649 45.2387 97.7644 45.0986 98.3213 45.0986Z" fill="white"/>
<path d="M103.044 51.8363C102.863 51.8363 102.712 51.7762 102.589 51.6561C102.474 51.536 102.417 51.3879 102.417 51.2117C102.417 51.0356 102.474 50.8915 102.589 50.7794C102.712 50.6593 102.863 50.5992 103.044 50.5992C103.216 50.5992 103.359 50.6593 103.473 50.7794C103.596 50.8915 103.658 51.0356 103.658 51.2117C103.658 51.3879 103.596 51.536 103.473 51.6561C103.359 51.7762 103.216 51.8363 103.044 51.8363Z" fill="white"/>
<path d="M106.245 45.9273V49.9987C106.245 50.3991 106.323 50.6753 106.478 50.8274C106.634 50.9795 106.908 51.0556 107.301 51.0556H108.087V51.7762H107.166C106.56 51.7762 106.11 51.6401 105.815 51.3679C105.52 51.0876 105.373 50.6312 105.373 49.9987V45.9273H104.439V45.2187H105.373V43.5733H106.245V45.2187H108.087V45.9273H106.245Z" fill="white"/>
<path d="M112.699 45.0986C113.207 45.0986 113.661 45.2027 114.062 45.4109C114.472 45.619 114.791 45.9393 115.02 46.3717C115.258 46.796 115.377 47.3165 115.377 47.933V51.7762H114.529V48.0291C114.529 47.3165 114.345 46.772 113.976 46.3957C113.616 46.0194 113.121 45.8312 112.49 45.8312C111.843 45.8312 111.327 46.0314 110.943 46.4317C110.558 46.8321 110.365 47.4206 110.365 48.1972V51.7762H109.505V42.8888H110.365V46.3356C110.578 45.9433 110.889 45.6391 111.299 45.4229C111.716 45.2067 112.183 45.0986 112.699 45.0986Z" fill="white"/>
<path d="M117.708 43.9817C117.536 43.9817 117.389 43.9216 117.266 43.8015C117.143 43.6814 117.082 43.5333 117.082 43.3571C117.082 43.181 117.143 43.0369 117.266 42.9248C117.389 42.8047 117.536 42.7446 117.708 42.7446C117.88 42.7446 118.028 42.8047 118.15 42.9248C118.273 43.0369 118.335 43.181 118.335 43.3571C118.335 43.5333 118.273 43.6814 118.15 43.8015C118.028 43.9216 117.88 43.9817 117.708 43.9817ZM118.138 45.2187V51.7762H117.278V45.2187H118.138Z" fill="white"/>
<path d="M123.23 45.0986C124.032 45.0986 124.687 45.3428 125.195 45.8312C125.702 46.3116 125.956 47.0122 125.956 47.933V51.7762H125.109V48.0291C125.109 47.3165 124.925 46.772 124.556 46.3957C124.196 46.0194 123.7 45.8312 123.07 45.8312C122.423 45.8312 121.907 46.0314 121.522 46.4317C121.137 46.8321 120.945 47.4206 120.945 48.1972V51.7762H120.085V45.2187H120.945V46.3356C121.158 45.9353 121.465 45.6311 121.866 45.4229C122.267 45.2067 122.722 45.0986 123.23 45.0986Z" fill="white"/>
<path d="M131.481 51.7762L128.718 48.8337V51.7762H127.858V42.8888H128.718V48.1492L131.42 45.2187H132.624L129.442 48.4854L132.648 51.7762H131.481Z" fill="white"/>
<path d="M133.907 51.8363C133.727 51.8363 133.575 51.7762 133.452 51.6561C133.338 51.536 133.28 51.3879 133.28 51.2117C133.28 51.0356 133.338 50.8915 133.452 50.7794C133.575 50.6593 133.727 50.5992 133.907 50.5992C134.079 50.5992 134.222 50.6593 134.337 50.7794C134.46 50.8915 134.521 51.0356 134.521 51.2117C134.521 51.3879 134.46 51.536 134.337 51.6561C134.222 51.7762 134.079 51.8363 133.907 51.8363Z" fill="white"/>
<path d="M135.597 48.4975C135.597 47.8169 135.737 47.2244 136.015 46.72C136.294 46.2075 136.678 45.8152 137.17 45.543C137.661 45.2627 138.222 45.1226 138.852 45.1226C139.68 45.1226 140.359 45.3228 140.891 45.7231C141.432 46.1235 141.78 46.6679 141.935 47.3565H141.014C140.9 46.8841 140.65 46.5158 140.265 46.2516C139.888 45.9793 139.417 45.8432 138.852 45.8432C138.402 45.8432 137.997 45.9433 137.636 46.1435C137.276 46.3436 136.99 46.6439 136.777 47.0442C136.572 47.4366 136.47 47.921 136.47 48.4975C136.47 49.0739 136.572 49.5624 136.777 49.9627C136.99 50.363 137.276 50.6633 137.636 50.8634C137.997 51.0636 138.402 51.1637 138.852 51.1637C139.417 51.1637 139.888 51.0316 140.265 50.7674C140.65 50.4951 140.9 50.1188 141.014 49.6384H141.935C141.78 50.311 141.432 50.8514 140.891 51.2598C140.351 51.6681 139.671 51.8723 138.852 51.8723C138.222 51.8723 137.661 51.7362 137.17 51.4639C136.678 51.1837 136.294 50.7914 136.015 50.287C135.737 49.7745 135.597 49.178 135.597 48.4975Z" fill="white"/>
<path d="M146.459 51.8723C145.829 51.8723 145.259 51.7362 144.752 51.4639C144.252 51.1837 143.855 50.7914 143.56 50.287C143.274 49.7745 143.13 49.178 143.13 48.4975C143.13 47.8169 143.278 47.2244 143.573 46.72C143.867 46.2075 144.269 45.8152 144.776 45.543C145.284 45.2627 145.853 45.1226 146.484 45.1226C147.114 45.1226 147.683 45.2627 148.191 45.543C148.707 45.8152 149.108 46.2075 149.395 46.72C149.689 47.2244 149.837 47.8169 149.837 48.4975C149.837 49.17 149.689 49.7625 149.395 50.2749C149.1 50.7874 148.695 51.1837 148.179 51.4639C147.663 51.7362 147.09 51.8723 146.459 51.8723ZM146.459 51.1637C146.901 51.1637 147.311 51.0636 147.687 50.8634C148.064 50.6633 148.367 50.363 148.596 49.9627C148.834 49.5624 148.952 49.0739 148.952 48.4975C148.952 47.921 148.838 47.4326 148.609 47.0322C148.379 46.6319 148.076 46.3356 147.7 46.1435C147.323 45.9433 146.914 45.8432 146.471 45.8432C146.029 45.8432 145.62 45.9433 145.243 46.1435C144.866 46.3356 144.563 46.6319 144.334 47.0322C144.113 47.4326 144.002 47.921 144.002 48.4975C144.002 49.0739 144.113 49.5624 144.334 49.9627C144.563 50.363 144.862 50.6633 145.231 50.8634C145.607 51.0636 146.017 51.1637 146.459 51.1637Z" fill="white"/>
<path d="M151.011 48.4854C151.011 47.8129 151.15 47.2244 151.429 46.72C151.707 46.2075 152.088 45.8152 152.571 45.543C153.062 45.2627 153.615 45.1226 154.229 45.1226C154.819 45.1226 155.351 45.2627 155.826 45.543C156.301 45.8232 156.649 46.1875 156.87 46.6359V42.8888H157.73V51.7762H156.87V50.311C156.665 50.7674 156.33 51.1437 155.863 51.4399C155.396 51.7282 154.847 51.8723 154.217 51.8723C153.603 51.8723 153.05 51.7322 152.559 51.4519C152.076 51.1717 151.695 50.7754 151.416 50.2629C151.146 49.7505 151.011 49.158 151.011 48.4854ZM156.87 48.4975C156.87 47.969 156.76 47.5046 156.538 47.1043C156.317 46.704 156.014 46.3957 155.63 46.1795C155.253 45.9633 154.835 45.8552 154.377 45.8552C153.902 45.8552 153.476 45.9593 153.099 46.1675C152.723 46.3757 152.424 46.6799 152.203 47.0803C151.99 47.4726 151.883 47.941 151.883 48.4854C151.883 49.0219 151.99 49.4943 152.203 49.9026C152.424 50.303 152.723 50.6112 153.099 50.8274C153.476 51.0356 153.902 51.1397 154.377 51.1397C154.835 51.1397 155.253 51.0316 155.63 50.8154C156.014 50.5992 156.317 50.291 156.538 49.8906C156.76 49.4903 156.87 49.0259 156.87 48.4975Z" fill="white"/>
<path d="M165.761 48.1492C165.761 48.4294 165.752 48.6456 165.736 48.7977H160.172C160.188 49.2941 160.307 49.7225 160.528 50.0828C160.757 50.4351 161.052 50.7033 161.412 50.8875C161.773 51.0716 162.166 51.1637 162.592 51.1637C163.148 51.1637 163.615 51.0316 163.992 50.7674C164.377 50.5031 164.631 50.1468 164.753 49.6985H165.662C165.498 50.339 165.146 50.8634 164.606 51.2718C164.074 51.6721 163.402 51.8723 162.592 51.8723C161.961 51.8723 161.396 51.7362 160.896 51.4639C160.397 51.1837 160.004 50.7914 159.717 50.287C159.439 49.7745 159.3 49.178 159.3 48.4975C159.3 47.8169 159.439 47.2204 159.717 46.708C159.996 46.1955 160.385 45.8032 160.884 45.531C161.384 45.2587 161.953 45.1226 162.592 45.1226C163.23 45.1226 163.787 45.2587 164.262 45.531C164.745 45.7952 165.114 46.1595 165.367 46.6239C165.63 47.0883 165.761 47.5967 165.761 48.1492ZM164.888 48.1732C164.897 47.6768 164.794 47.2524 164.581 46.9001C164.377 46.5478 164.094 46.2836 163.734 46.1075C163.374 45.9313 162.98 45.8432 162.555 45.8432C162.137 45.8432 161.752 45.9313 161.4 46.1075C161.048 46.2836 160.761 46.5478 160.54 46.9001C160.319 47.2524 160.196 47.6768 160.172 48.1732H164.888Z" fill="white"/>
<path d="M167.481 51.8363C167.301 51.8363 167.149 51.7762 167.027 51.6561C166.912 51.536 166.855 51.3879 166.855 51.2117C166.855 51.0356 166.912 50.8915 167.027 50.7794C167.149 50.6593 167.301 50.5992 167.481 50.5992C167.653 50.5992 167.796 50.6593 167.911 50.7794C168.034 50.8915 168.095 51.0356 168.095 51.2117C168.095 51.3879 168.034 51.536 167.911 51.6561C167.796 51.7762 167.653 51.8363 167.481 51.8363Z" fill="white"/>
<path d="M0 26.7745V14.417L21.2534 0V13.1298L0 26.7745Z" fill="#FC8412"/>
<path d="M13.5801 32.4V20.0425L34.8335 5.62549V18.7553L13.5801 32.4Z" fill="#209CF6"/>
<path d="M0 41.3786V29.24L11.5376 21.9062L11.2812 34.2977L0 41.3786Z" fill="#FC8412"/>
<path d="M34.8335 61.0001V48.6426L55.4797 34.2256V47.0979L34.8335 61.0001Z" fill="#209CF6"/>
<path d="M34.8335 61.0001V48.6426L13.5801 34.2256V46.8405L34.8335 61.0001Z" fill="#209CF6"/>
<path d="M60.2278 16.1674C60.2278 17.7359 59.8695 19.1757 59.153 20.487C58.4365 21.7726 57.3361 22.8139 55.8518 23.611C54.3676 24.4081 52.5251 24.8066 50.3243 24.8066H46.2554V34.5256H39.6914V7.45117H50.3243C52.4739 7.45117 54.2908 7.82399 55.7751 8.56963C57.2593 9.31527 58.3725 10.3437 59.1146 11.655C59.8568 12.9663 60.2278 14.4705 60.2278 16.1674ZM49.8253 19.6385C51.0792 19.6385 52.0133 19.33 52.6274 18.7129C53.2416 18.0958 53.5487 17.2473 53.5487 16.1674C53.5487 15.0876 53.2416 14.2391 52.6274 13.622C52.0133 13.0049 51.0792 12.6964 49.8253 12.6964H46.2554V19.6385H49.8253Z" fill="white"/>
<path d="M70.209 16.8617C70.9767 15.6018 71.9364 14.6119 73.088 13.892C74.2651 13.1463 75.5447 12.7735 76.9265 12.7735V19.7542H75.1224C73.4846 19.7542 72.2563 20.1142 71.4374 20.8341C70.6185 21.5283 70.209 22.7625 70.209 24.5366V34.5256H63.645V13.0049H70.209V16.8617Z" fill="white"/>
<path d="M89.814 34.8342C87.7155 34.8342 85.8218 34.3842 84.1329 33.4843C82.4695 32.5844 81.1516 31.2988 80.1791 29.6275C79.2323 27.9563 78.7589 26.0022 78.7589 23.7653C78.7589 21.5541 79.2451 19.6128 80.2175 17.9416C81.19 16.2446 82.5207 14.9461 84.2096 14.0462C85.8986 13.1463 87.7923 12.6964 89.8908 12.6964C91.9892 12.6964 93.8829 13.1463 95.5718 14.0462C97.2608 14.9461 98.5915 16.2446 99.564 17.9416C100.536 19.6128 101.023 21.5541 101.023 23.7653C101.023 25.9765 100.524 27.9306 99.5256 29.6275C98.5531 31.2988 97.2096 32.5844 95.4951 33.4843C93.8061 34.3842 91.9124 34.8342 89.814 34.8342ZM89.814 29.1647C91.0679 29.1647 92.1299 28.7019 93 27.7763C93.8957 26.825 94.3435 25.4879 94.3435 23.7653C94.3435 22.0426 93.9085 20.7184 93.0384 19.7928C92.1939 18.8415 91.1447 18.3658 89.8908 18.3658C88.6112 18.3658 87.5492 18.8286 86.7047 19.7542C85.8602 20.6799 85.438 22.0169 85.438 23.7653C85.438 25.4879 85.8474 26.825 86.6663 27.7763C87.5108 28.7019 88.56 29.1647 89.814 29.1647Z" fill="white"/>
<path d="M104.059 24.0659C104.059 21.9022 104.495 20.0184 105.366 18.4147C106.238 16.7855 107.443 15.5381 108.982 14.6726C110.52 13.7816 112.276 13.3362 114.25 13.3362C116.84 13.3362 118.968 13.9726 120.635 15.2454C122.327 16.5182 123.417 18.2492 123.904 20.4384H121.019C120.66 18.9365 119.878 17.7655 118.673 16.9255C117.494 16.06 116.02 15.6272 114.25 15.6272C112.84 15.6272 111.571 15.9454 110.443 16.5818C109.315 17.2182 108.418 18.1728 107.751 19.4456C107.11 20.693 106.789 22.2331 106.789 24.0659C106.789 25.8988 107.11 27.4516 107.751 28.7244C108.418 29.9972 109.315 30.9518 110.443 31.5882C111.571 32.2246 112.84 32.5428 114.25 32.5428C116.02 32.5428 117.494 32.1228 118.673 31.2828C119.878 30.4173 120.66 29.2208 121.019 27.6934H123.904C123.417 29.8318 122.327 31.5501 120.635 32.8483C118.942 34.1466 116.814 34.7957 114.25 34.7957C112.276 34.7957 110.52 34.363 108.982 33.4974C107.443 32.6065 106.238 31.3591 105.366 29.7554C104.495 28.1262 104.059 26.2297 104.059 24.0659Z" fill="#FC8412"/>
<path d="M131.568 6.23389V34.4902H128.876V6.23389H131.568Z" fill="#FC8412"/>
<path d="M155.855 13.6416V34.4902H153.163V30.8245C152.548 32.1228 151.599 33.1156 150.317 33.8029C149.035 34.4902 147.599 34.8339 146.01 34.8339C143.497 34.8339 141.446 34.0702 139.856 32.5428C138.267 30.99 137.472 28.7499 137.472 25.8224V13.6416H140.126V25.5169C140.126 27.7825 140.69 29.5136 141.818 30.71C142.971 31.9064 144.535 32.5047 146.51 32.5047C148.535 32.5047 150.15 31.8683 151.356 30.5954C152.561 29.3226 153.163 27.4516 153.163 24.9824V13.6416H155.855Z" fill="#FC8412"/>
<path d="M164.655 18.2619C165.347 16.8109 166.411 15.6272 167.847 14.7108C169.309 13.7944 171.026 13.3362 173.001 13.3362C174.924 13.3362 176.641 13.7816 178.154 14.6726C179.667 15.5381 180.846 16.7855 181.692 18.4147C182.564 20.0184 183 21.8894 183 24.0278C183 26.1661 182.564 28.0498 181.692 29.679C180.846 31.3082 179.654 32.5683 178.116 33.4593C176.603 34.3502 174.898 34.7957 173.001 34.7957C171.001 34.7957 169.27 34.3502 167.809 33.4593C166.373 32.5428 165.322 31.3591 164.655 29.9081V34.4902H162.001V6.23389H164.655V18.2619ZM180.269 24.0278C180.269 22.2967 179.923 20.8075 179.231 19.5602C178.564 18.2874 177.641 17.3201 176.462 16.6582C175.283 15.9963 173.949 15.6654 172.462 15.6654C171.026 15.6654 169.706 16.0091 168.501 16.6964C167.322 17.3837 166.386 18.3638 165.693 19.6366C165.001 20.9094 164.655 22.3858 164.655 24.0659C164.655 25.746 165.001 27.2225 165.693 28.4953C166.386 29.7681 167.322 30.7482 168.501 31.4355C169.706 32.1228 171.026 32.4665 172.462 32.4665C173.949 32.4665 175.283 32.1355 176.462 31.4737C177.641 30.7864 178.564 29.8063 179.231 28.5335C179.923 27.2352 180.269 25.7333 180.269 24.0278Z" fill="#FC8412"/>
</svg>
