<svg width="1128" height="54" viewBox="0 0 1128 54" fill="none" xmlns="http://www.w3.org/2000/svg">
<g filter="url(#filter0_bi_4_1772)">
<rect width="1128" height="54" rx="8" fill="#1E1B1B" fill-opacity="0.01"/>
<rect x="10" y="10" width="19" height="34" fill="#209CF6"/>
<rect x="37" y="10" width="19" height="34" fill="#209CF6"/>
<rect x="64" y="10" width="19" height="34" fill="#209CF6"/>
<rect x="91" y="10" width="19" height="34" fill="#209CF6"/>
<rect x="118" y="10" width="19" height="34" fill="#209CF6"/>
<rect x="145" y="10" width="19" height="34" fill="#209CF6"/>
<rect x="172" y="10" width="19" height="34" fill="#209CF6"/>
<rect x="199" y="10" width="19" height="34" fill="#209CF6"/>
<rect x="226" y="10" width="19" height="34" fill="#209CF6"/>
<rect x="253" y="10" width="19" height="34" fill="#209CF6"/>
<rect x="280" y="10" width="19" height="34" fill="#209CF6"/>
<rect x="307" y="10" width="19" height="34" fill="#209CF6"/>
<rect x="334" y="10" width="19" height="34" fill="#209CF6"/>
<rect x="361" y="10" width="19" height="34" fill="#209CF6"/>
<rect x="388" y="10" width="19" height="34" fill="#209CF6"/>
<rect x="415" y="10" width="19" height="34" fill="#209CF6"/>
<rect x="442" y="10" width="19" height="34" fill="#209CF6"/>
<rect x="469" y="10" width="19" height="34" fill="#209CF6"/>
<rect x="496" y="10" width="19" height="34" fill="#209CF6"/>
<rect x="523" y="10" width="19" height="34" fill="#209CF6"/>
<rect x="550" y="10" width="19" height="34" fill="#209CF6"/>
<rect x="577" y="10" width="19" height="34" fill="#FC8412"/>
<rect x="604" y="10" width="19" height="34" fill="#FC8412"/>
<rect x="631" y="10" width="19" height="34" fill="#FC8412"/>
<rect x="658" y="10" width="19" height="34" fill="#FC8412"/>
<rect x="685" y="10" width="19" height="34" fill="#FC8412"/>
<rect x="712" y="10" width="19" height="34" fill="#FC8412"/>
<rect x="739" y="10" width="19" height="34" fill="#FC8412"/>
<rect x="766" y="10" width="19" height="34" fill="#FC8412"/>
<rect x="1.5" y="1.5" width="1125" height="51" rx="6.5" stroke="url(#paint0_linear_4_1772)" stroke-width="3"/>
</g>
<defs>
<filter id="filter0_bi_4_1772" x="-20" y="-20" width="1168" height="94" filterUnits="userSpaceOnUse" color-interpolation-filters="sRGB">
<feFlood flood-opacity="0" result="BackgroundImageFix"/>
<feGaussianBlur in="BackgroundImageFix" stdDeviation="10"/>
<feComposite in2="SourceAlpha" operator="in" result="effect1_backgroundBlur_4_1772"/>
<feBlend mode="normal" in="SourceGraphic" in2="effect1_backgroundBlur_4_1772" result="shape"/>
<feColorMatrix in="SourceAlpha" type="matrix" values="0 0 0 0 0 0 0 0 0 0 0 0 0 0 0 0 0 0 127 0" result="hardAlpha"/>
<feOffset/>
<feGaussianBlur stdDeviation="30"/>
<feComposite in2="hardAlpha" operator="arithmetic" k2="-1" k3="1"/>
<feColorMatrix type="matrix" values="0 0 0 0 1 0 0 0 0 1 0 0 0 0 1 0 0 0 0.25 0"/>
<feBlend mode="normal" in2="shape" result="effect2_innerShadow_4_1772"/>
</filter>
<linearGradient id="paint0_linear_4_1772" x1="-3.83506e-05" y1="-0.586954" x2="9.84854" y2="122.797" gradientUnits="userSpaceOnUse">
<stop offset="0.114711" stop-color="#209CF6"/>
<stop offset="0.523297" stop-color="white" stop-opacity="0.46"/>
<stop offset="1" stop-color="#FC8412"/>
</linearGradient>
</defs>
</svg>
